<svg width="40" height="40" viewBox="0 0 40 40" fill="none" xmlns="http://www.w3.org/2000/svg">
<rect width="40" height="40" rx="6" fill="#032125"/>
<g filter="url(#filter0_d_2228_343)">
<path d="M32.1873 22.4375C32.1873 22.653 32.1017 22.8597 31.9493 23.012C31.7969 23.1644 31.5903 23.25 31.3748 23.25H29.7498V24.875C29.7498 25.0905 29.6642 25.2972 29.5118 25.4495C29.3594 25.6019 29.1528 25.6875 28.9373 25.6875C28.7218 25.6875 28.5151 25.6019 28.3628 25.4495C28.2104 25.2972 28.1248 25.0905 28.1248 24.875V23.25H26.4998C26.2843 23.25 26.0776 23.1644 25.9253 23.012C25.7729 22.8597 25.6873 22.653 25.6873 22.4375C25.6873 22.222 25.7729 22.0153 25.9253 21.863C26.0776 21.7106 26.2843 21.625 26.4998 21.625H28.1248V20C28.1248 19.7845 28.2104 19.5778 28.3628 19.4255C28.5151 19.2731 28.7218 19.1875 28.9373 19.1875C29.1528 19.1875 29.3594 19.2731 29.5118 19.4255C29.6642 19.5778 29.7498 19.7845 29.7498 20V21.625H31.3748C31.5903 21.625 31.7969 21.7106 31.9493 21.863C32.1017 22.0153 32.1873 22.222 32.1873 22.4375ZM12.6873 14.3125H14.3123V15.9375C14.3123 16.153 14.3979 16.3597 14.5503 16.512C14.7026 16.6644 14.9093 16.75 15.1248 16.75C15.3403 16.75 15.5469 16.6644 15.6993 16.512C15.8517 16.3597 15.9373 16.153 15.9373 15.9375V14.3125H17.5623C17.7778 14.3125 17.9844 14.2269 18.1368 14.0745C18.2892 13.9222 18.3748 13.7155 18.3748 13.5C18.3748 13.2845 18.2892 13.0778 18.1368 12.9255C17.9844 12.7731 17.7778 12.6875 17.5623 12.6875H15.9373V11.0625C15.9373 10.847 15.8517 10.6403 15.6993 10.488C15.5469 10.3356 15.3403 10.25 15.1248 10.25C14.9093 10.25 14.7026 10.3356 14.5503 10.488C14.3979 10.6403 14.3123 10.847 14.3123 11.0625V12.6875H12.6873C12.4718 12.6875 12.2651 12.7731 12.1128 12.9255C11.9604 13.0778 11.8748 13.2845 11.8748 13.5C11.8748 13.7155 11.9604 13.9222 12.1128 14.0745C12.2651 14.2269 12.4718 14.3125 12.6873 14.3125ZM25.6873 26.5H24.8748V25.6875C24.8748 25.472 24.7892 25.2653 24.6368 25.113C24.4844 24.9606 24.2778 24.875 24.0623 24.875C23.8468 24.875 23.6401 24.9606 23.4878 25.113C23.3354 25.2653 23.2498 25.472 23.2498 25.6875V26.5H22.4373C22.2218 26.5 22.0151 26.5856 21.8628 26.738C21.7104 26.8903 21.6248 27.097 21.6248 27.3125C21.6248 27.528 21.7104 27.7347 21.8628 27.887C22.0151 28.0394 22.2218 28.125 22.4373 28.125H23.2498V28.9375C23.2498 29.153 23.3354 29.3597 23.4878 29.512C23.6401 29.6644 23.8468 29.75 24.0623 29.75C24.2778 29.75 24.4844 29.6644 24.6368 29.512C24.7892 29.3597 24.8748 29.153 24.8748 28.9375V28.125H25.6873C25.9028 28.125 26.1094 28.0394 26.2618 27.887C26.4142 27.7347 26.4998 27.528 26.4998 27.3125C26.4998 27.097 26.4142 26.8903 26.2618 26.738C26.1094 26.5856 25.9028 26.5 25.6873 26.5ZM29.2735 15.125L15.1248 29.2737C14.8201 29.5782 14.4069 29.7492 13.9761 29.7492C13.5453 29.7492 13.1322 29.5782 12.8275 29.2737L10.7251 27.1734C10.5742 27.0225 10.4544 26.8433 10.3728 26.6461C10.2911 26.4489 10.249 26.2376 10.249 26.0242C10.249 25.8108 10.2911 25.5994 10.3728 25.4022C10.4544 25.2051 10.5742 25.0259 10.7251 24.875L24.8748 10.7263C25.0257 10.5754 25.2048 10.4557 25.402 10.374C25.5992 10.2923 25.8105 10.2502 26.024 10.2502C26.2374 10.2502 26.4487 10.2923 26.6459 10.374C26.8431 10.4557 27.0223 10.5754 27.1732 10.7263L29.2735 12.8266C29.4244 12.9775 29.5441 13.1567 29.6258 13.3539C29.7075 13.5511 29.7495 13.7624 29.7495 13.9758C29.7495 14.1892 29.7075 14.4006 29.6258 14.5978C29.5441 14.7949 29.4244 14.9741 29.2735 15.125ZM28.1248 13.9763L26.0235 11.875L22.7735 15.125L24.8748 17.2263L28.1248 13.9763Z" fill="white"/>
</g>
<defs>
<filter id="filter0_d_2228_343" x="5" y="6" width="30" height="30" filterUnits="userSpaceOnUse" color-interpolation-filters="sRGB">
<feFlood flood-opacity="0" result="BackgroundImageFix"/>
<feColorMatrix in="SourceAlpha" type="matrix" values="0 0 0 0 0 0 0 0 0 0 0 0 0 0 0 0 0 0 127 0" result="hardAlpha"/>
<feOffset dy="1"/>
<feGaussianBlur stdDeviation="1"/>
<feComposite in2="hardAlpha" operator="out"/>
<feColorMatrix type="matrix" values="0 0 0 0 0.901667 0 0 0 0 0.901667 0 0 0 0 0.901667 0 0 0 0.54 0"/>
<feBlend mode="normal" in2="BackgroundImageFix" result="effect1_dropShadow_2228_343"/>
<feBlend mode="normal" in="SourceGraphic" in2="effect1_dropShadow_2228_343" result="shape"/>
</filter>
</defs>
</svg>
